<svg width="14" height="14" viewBox="0 0 14 14" fill="none" xmlns="http://www.w3.org/2000/svg">
<path fill-rule="evenodd" clip-rule="evenodd" d="M7.37697 0.834615L8.61543 4.87308C8.66927 5.03462 8.83081 5.11539 8.99235 5.11539H13.0308C13.4347 5.11539 13.5962 5.65385 13.2731 5.89615L9.9885 8.31923C9.85389 8.42692 9.80004 8.61539 9.85389 8.77692L11.4154 12.9231C11.5231 13.3 11.1193 13.6231 10.7962 13.3808L7.26927 10.7423C7.13466 10.6346 6.9462 10.6346 6.78466 10.7423L3.23081 13.3808C2.90774 13.6231 2.47697 13.3 2.61158 12.9231L4.11927 8.77692C4.17312 8.61539 4.11927 8.42692 3.98466 8.31923L0.700044 5.89615C0.376967 5.65385 0.565429 5.11539 0.942352 5.11539H4.98081C5.16927 5.11539 5.30389 5.06154 5.35774 4.87308L6.62312 0.807692C6.73081 0.430769 7.26927 0.457692 7.37697 0.834615Z" fill="#5C5C5C"/>
</svg>
