<?xml version="1.0" encoding="UTF-8"?>
<svg id="Layer_2" data-name="Layer 2" xmlns="http://www.w3.org/2000/svg" xmlns:xlink="http://www.w3.org/1999/xlink" viewBox="0 0 149.2 149">
  <defs>
    <style>
      .cls-1 {
        fill: #fff;
      }

      .cls-2 {
        fill: #175587;
      }

      .cls-3 {
        stroke: #175587;
      }

      .cls-3, .cls-4 {
        fill: none;
      }

      .cls-5 {
        fill: #15efc3;
      }

      .cls-6 {
        mask: url(#mask-1);
      }

      .cls-7 {
        mask: url(#mask);
      }

      .cls-4 {
        stroke: #15efc3;
        stroke-width: 2px;
      }
    </style>
    <mask id="mask" x="1.11" y="82.53" width="146.98" height="65.47" maskUnits="userSpaceOnUse"/>
    <mask id="mask-1" x="15.11" y="82.23" width="118.82" height="51.77" maskUnits="userSpaceOnUse"/>
  </defs>
  <g id="Layer_1-2" data-name="Layer 1">
    <g>
      <circle class="cls-3" cx="74.6" cy="74" r="73.5"/>
      <g class="cls-7">
        <path class="cls-4" d="M148.09,82.65c-2.12,18-10.77,34.6-24.31,46.64-13.54,12.05-31.03,18.7-49.16,18.71-18.12,0-35.62-6.64-49.17-18.67C11.91,117.29,3.24,100.7,1.11,82.7l1.02-.12c2.1,17.75,10.64,34.1,24.01,45.97,13.36,11.87,30.61,18.42,48.48,18.41,17.87,0,35.12-6.57,48.47-18.45s21.88-28.24,23.97-45.99l1.03,.12Z"/>
      </g>
      <circle class="cls-1" cx="74.6" cy="74" r="59.94"/>
      <g class="cls-6">
        <path class="cls-4" d="M133.94,82.38c-2.02,14.32-9.14,27.43-20.06,36.91-10.92,9.49-24.89,14.71-39.35,14.71-14.46,0-28.44-5.22-39.35-14.71-10.92-9.48-18.04-22.59-20.06-36.91l1-.14c1.99,14.08,8.99,26.96,19.72,36.29,10.73,9.32,24.47,14.46,38.69,14.46,14.22,0,27.96-5.14,38.69-14.46,10.73-9.33,17.73-22.21,19.72-36.29l1,.14Z"/>
      </g>
      <path class="cls-5" d="M107.8,65.8c0-3.69-2.75-6.82-6.43-7.34-1.23-7.85-8.02-13.66-16.03-13.71-.32,0-.65,.04-.98,.06-1.18-2.07-3.28-3.45-5.66-3.72-2.38-.27-4.74,.61-6.36,2.37-2.21-1.57-4.87-2.42-7.59-2.42-4.23,.02-8.2,2.05-10.66,5.47-2.83-.98-5.96-.55-8.41,1.15-2.46,1.7-3.95,4.46-4,7.43-3.67,1.23-5.76,5.08-4.75,8.79-1.79,2.56-2.75,5.61-2.74,8.73,0,4.85,2.29,9.42,6.19,12.35,3.9,2.92,8.96,3.86,13.66,2.54,1.63,3.48,4.87,5.95,8.68,6.61,3.81,.66,7.7-.57,10.43-3.29,1.54,.52,3.13,.83,4.75,.94,.23,4.63,2.02,7.41,9.56,9.9,4.89,1.62,6.2,4.9,6.54,6.71,.23,1.17,1.27,2.02,2.48,2.01h3.81c.69,0,1.35-.28,1.82-.78,.47-.5,.72-1.16,.68-1.84-.19-2.97-1.02-9.85-4.63-14.22,4.16-2.26,7.11-6.21,8.07-10.82,3.4-3.93,3.8-9.6,.98-13.96,.41-.93,.62-1.93,.62-2.95Z"/>
      <path class="cls-2" d="M58.55,70.96l13.03-22.21c.29-.49,1.05-.19,.92,.36l-3.17,13.77c-.03,.13,.07,.25,.21,.24l16.45-1.11c.17-.01,.27,.18,.18,.31l-17.69,25.59c-.34,.49-1.09,.09-.88-.46l6.93-18.45c.05-.14-.07-.29-.22-.27l-15.57,2.51c-.17,.03-.29-.15-.2-.3Z"/>
      <path class="cls-5" d="M57.97,103.01h-5.22l1.04-9.21c0-.45-.29-.84-.73-.98-.43-.14-.9,.02-1.17,.38l-10.43,14.33c-.23,.31-.26,.72-.08,1.06,.18,.34,.54,.55,.93,.55h5.67l-1.5,9.21c0,.45,.29,.84,.73,.97,.43,.14,.9-.02,1.17-.38l10.43-14.33c.23-.31,.26-.72,.08-1.06-.18-.34-.54-.55-.93-.55Z"/>
      <path class="cls-5" d="M125.7,62.41h-3.69l.74-6.52c0-.32-.21-.59-.51-.69-.31-.1-.64,.01-.83,.27l-7.39,10.14c-.16,.22-.18,.51-.05,.75,.13,.24,.38,.39,.66,.39h4.01l-1.06,6.52c0,.32,.21,.59,.51,.69,.31,.1,.64-.01,.83-.27l7.39-10.14c.16-.22,.18-.51,.06-.75-.13-.24-.38-.39-.66-.39Z"/>
      <path class="cls-5" d="M94.49,26.47h-3.69l.74-6.52c0-.32-.21-.59-.51-.69-.31-.1-.64,.01-.83,.27l-7.39,10.14c-.16,.22-.18,.51-.05,.75,.13,.24,.38,.39,.66,.39h4.01l-1.06,6.52c0,.31,.21,.59,.51,.69,.31,.1,.64-.01,.83-.27l7.39-10.14c.16-.22,.18-.51,.06-.75-.13-.24-.38-.39-.66-.39Z"/>
    </g>
  </g>
</svg>