<?xml version="1.0" encoding="UTF-8"?>
<svg id="Layer_2" data-name="Layer 2" xmlns="http://www.w3.org/2000/svg" xmlns:xlink="http://www.w3.org/1999/xlink" viewBox="0 0 34.63 34.63">
  <defs>
    <style>
      .cls-1, .cls-2 {
        fill: #fff;
      }

      .cls-2 {
        stroke: #fff;
        stroke-width: 2px;
      }

      .cls-3 {
        mask: url(#mask-1);
      }

      .cls-4 {
        mask: url(#mask);
      }

      .cls-5 {
        fill: none;
        stroke: rgba(255, 255, 255, .5);
        stroke-width: .5px;
      }
    </style>
    <mask id="mask" x="17.32" y="1" width="16.32" height="16.32" maskUnits="userSpaceOnUse"/>
    <mask id="mask-1" x="1" y="17.32" width="16.32" height="16.32" maskUnits="userSpaceOnUse"/>
  </defs>
  <g id="Layer_1-2" data-name="Layer 1">
    <g>
      <circle class="cls-5" cx="17.32" cy="17.32" r="16.07"/>
      <g class="cls-4">
        <path class="cls-2" d="M33.63,17.32c0-2.14-.42-4.27-1.24-6.24-.82-1.98-2.02-3.78-3.54-5.29-1.52-1.51-3.31-2.72-5.29-3.54-1.98-.82-4.1-1.24-6.24-1.24V3.27c1.85,0,3.67,.36,5.38,1.07,1.71,.71,3.25,1.74,4.56,3.04,1.3,1.31,2.34,2.85,3.04,4.56,.71,1.7,1.07,3.53,1.07,5.38h2.27Z"/>
      </g>
      <g class="cls-3">
        <path class="cls-2" d="M1,17.32c0,2.14,.42,4.26,1.24,6.24,.82,1.98,2.02,3.78,3.54,5.29,1.51,1.52,3.31,2.72,5.29,3.54,1.98,.82,4.1,1.24,6.24,1.24v-2.27c-1.85,0-3.67-.36-5.38-1.07-1.7-.71-3.25-1.74-4.56-3.05-1.3-1.3-2.34-2.85-3.05-4.56-.71-1.7-1.07-3.53-1.07-5.38H1Z"/>
      </g>
      <circle class="cls-1" cx="17.25" cy="17.51" r="2"/>
    </g>
  </g>
</svg>