<?xml version="1.0" encoding="utf-8"?>
<!-- Generator: Adobe Illustrator 26.4.1, SVG Export Plug-In . SVG Version: 6.00 Build 0)  -->
<svg version="1.1" id="Layer_2_00000098937865049607885970000001597623621589407619_"
	 xmlns="http://www.w3.org/2000/svg" xmlns:xlink="http://www.w3.org/1999/xlink" x="0px" y="0px" viewBox="0 0 34.6 34.6"
	 style="enable-background:new 0 0 34.6 34.6;" xml:space="preserve">
<style type="text/css">
	.st0{fill:none;stroke:#FFFFFF;stroke-miterlimit:10;}
	.st1{fill:#FFFFFF;}
</style>
<g id="Layer_1-2">
	<g>
		<circle class="st0" cx="17.3" cy="17.3" r="16.1"/>
		<g>
			<path class="st1" d="M33.6,17.3c0-2.1-0.4-4.3-1.2-6.2c-0.8-2-2-3.8-3.5-5.3s-3.3-2.7-5.3-3.5S19.5,1,17.3,1v2.3
				c1.9,0,3.7,0.4,5.4,1.1s3.2,1.7,4.6,3c1.3,1.3,2.3,2.8,3,4.6c0.7,1.7,1.1,3.5,1.1,5.4H33.6L33.6,17.3z"/>
		</g>
		<g>
			<path class="st1" d="M1,17.3c0,2.1,0.4,4.3,1.2,6.2s2,3.8,3.5,5.3c1.5,1.5,3.3,2.7,5.3,3.5c2,0.8,4.1,1.2,6.2,1.2v-2.3
				c-1.9,0-3.7-0.4-5.4-1.1c-1.7-0.7-3.2-1.7-4.6-3c-1.3-1.3-2.3-2.9-3-4.6c-0.7-1.7-1.1-3.5-1.1-5.4L1,17.3L1,17.3z"/>
		</g>
		<circle class="st1" cx="17.2" cy="17.5" r="2"/>
	</g>
</g>
</svg>
