<?xml version="1.0" encoding="UTF-8"?>
<svg id="Layer_2" data-name="Layer 2" xmlns="http://www.w3.org/2000/svg" xmlns:xlink="http://www.w3.org/1999/xlink" viewBox="0 0 150 150">
  <defs>
    <style>
      .cls-1 {
        fill: #fff;
      }

      .cls-2 {
        fill: #175587;
      }

      .cls-3 {
        stroke: #175587;
      }

      .cls-3, .cls-4, .cls-5 {
        fill: none;
      }

      .cls-6 {
        fill: #15efc3;
      }

      .cls-7 {
        mask: url(#mask-1);
      }

      .cls-8 {
        mask: url(#mask);
      }

      .cls-4, .cls-5 {
        stroke: #15efc3;
      }

      .cls-5 {
        stroke-width: 2px;
      }
    </style>
    <mask id="mask" x="1" y="1" width="148" height="82.11" maskUnits="userSpaceOnUse"/>
    <mask id="mask-1" x="1.73" y="83.53" width="146.98" height="65.47" maskUnits="userSpaceOnUse"/>
  </defs>
  <g id="Layer_1-2" data-name="Layer 1">
    <g>
      <circle class="cls-4" cx="75.22" cy="75" r="73.5"/>
      <circle class="cls-1" cx="75.22" cy="75" r="59.94"/>
      <path class="cls-6" d="M112.1,59.91l-22.33-10.13-2.49,2.49,2.45,12.43-17.95,45.6-9.34-1.55-.55,2.49,22.33,10.13,26.12-35.32,1.77-26.15Z"/>
      <path class="cls-2" d="M62.92,43.17c2.72,.45,8.31,1.63,8.85,2.72l10.9,15.66c-1.36,3.41-4.63,10.9-6.81,13.62-2.18,2.72-7.27,9.76-9.54,12.94-3.4,.23-10.49,.55-11.58,0-1.09-.54-4.54-19.3-6.13-28.61l14.3-16.35Z"/>
      <path class="cls-6" d="M85.84,64.66l-5.02-25.55-24.04-3.97-13.01,22.58,2.03,43.6,24.04,3.98,16-40.63Zm-22.02,21.09l-6.01-.99,4.37-21.68-9.89-.86,1-6.02,9.64,2.37,.87-9.9,6.01,.99-2.37,9.65,9.89,.86-1,6.02-9.64-2.37-2.86,21.93Z"/>
      <g class="cls-8">
        <path class="cls-5" d="M148.64,82.3c1.02-10.32-.14-20.73-3.4-30.57-3.26-9.84-8.55-18.89-15.54-26.55-6.98-7.66-15.5-13.78-24.99-17.94-9.49-4.16-19.76-6.29-30.13-6.23-10.37,.06-20.61,2.29-30.05,6.56-9.45,4.27-17.89,10.47-24.79,18.21-6.9,7.74-12.09,16.85-15.24,26.72C1.35,62.38,.31,72.81,1.45,83.11l1.34-.15c-1.12-10.12-.09-20.36,3-30.06,3.09-9.7,8.19-18.64,14.96-26.24,6.77-7.6,15.06-13.69,24.34-17.88,9.28-4.19,19.33-6.39,29.51-6.44,10.18-.06,20.26,2.03,29.58,6.11,9.32,4.09,17.68,10.09,24.54,17.61,6.85,7.52,12.05,16.41,15.25,26.07,3.2,9.66,4.34,19.89,3.33,30.02l1.34,.13Z"/>
      </g>
      <circle class="cls-3" cx="75.22" cy="75" r="73.5"/>
      <g class="cls-7">
        <path class="cls-5" d="M148.71,83.65c-2.12,18-10.77,34.6-24.31,46.64-13.54,12.05-31.03,18.7-49.16,18.71-18.12,0-35.62-6.64-49.17-18.67C12.53,118.29,3.86,101.7,1.73,83.7l1.03-.12c2.1,17.75,10.64,34.1,24.01,45.97,13.36,11.87,30.61,18.42,48.48,18.41,17.87,0,35.12-6.57,48.47-18.45,13.35-11.88,21.88-28.24,23.97-45.99l1.02,.12Z"/>
      </g>
    </g>
  </g>
</svg>