<?xml version="1.0" encoding="UTF-8"?>
<svg id="Layer_2" data-name="Layer 2" xmlns="http://www.w3.org/2000/svg" xmlns:xlink="http://www.w3.org/1999/xlink" viewBox="0 0 149.2 149">
  <defs>
    <style>
      .cls-1, .cls-2 {
        fill: #fff;
      }

      .cls-3, .cls-4, .cls-5 {
        fill: none;
      }

      .cls-3, .cls-2 {
        stroke: #175587;
      }

      .cls-6 {
        fill: #15efc3;
      }

      .cls-7 {
        mask: url(#mask);
      }

      .cls-4, .cls-5 {
        stroke: #15efc3;
      }

      .cls-5 {
        stroke-width: 2px;
      }

      .cls-2 {
        stroke-width: 4px;
      }
    </style>
    <mask id="mask" x="1.11" y="82.53" width="146.98" height="65.47" maskUnits="userSpaceOnUse"/>
  </defs>
  <g id="Layer_1-2" data-name="Layer 1">
    <g>
      <circle class="cls-4" cx="74.5" cy="74" r="73.5"/>
      <circle class="cls-1" cx="74.49" cy="74" r="59.94"/>
      <path class="cls-2" d="M72.59,94.84h0v.02c.09,2.38-.8,4.7-2.5,6.43-1.69,1.73-4.04,2.71-6.5,2.71s-4.8-.98-6.5-2.71h0c-1.69-1.73-2.59-4.05-2.49-6.43h0v-.02c.07-2.31,1.04-4.52,2.71-6.17,1.66-1.63,3.91-2.59,6.27-2.68,2.37,.08,4.61,1.04,6.28,2.67,1.68,1.65,2.65,3.86,2.72,6.17Z"/>
      <path class="cls-6" d="M74.45,43.9c4.11,.84,8.45-3.4,9.45-8.23h0c.47-1.99,.11-4.09-1-5.82-1.1-1.73-2.86-2.93-4.86-3.35-2.01-.41-4.1,0-5.79,1.15-1.7,1.15-2.86,2.93-3.22,4.95-.98,4.83,1.32,10.44,5.42,11.3h0Z"/>
      <path class="cls-6" d="M106.13,94.2c-.6,.62-1.41,.99-2.27,1.03-.97,.04-1.92-.33-2.6-1.03-.27-.27-.49-.58-.67-.93l-5.71-11.33h-12.48c-1.97-2.82-4.54-5.18-7.52-6.9-2.88-1.66-6.09-2.67-9.4-2.98l-3.07-17.59v-.59h0c-.16-2.56,.89-5.05,2.83-6.73,1.94-1.68,4.55-2.36,7.07-1.83l.33,.07c5.96,1.36,8.45,6.67,9.01,12.3,.28,2.81,.1,5.61,.19,8.42,0,.94-.2,2.5,.58,3.18h0c.7,.44,1.49,.69,2.31,.72l9.81,1.69c1.47,.15,2.88,.69,4.08,1.55,1.2,.87,2.15,2.03,2.75,3.38l5.5,13.95c.24,.61,.3,1.27,.17,1.91s-.44,1.23-.89,1.7h0Z"/>
      <path class="cls-6" d="M105.49,100.52h7.06c0-1.01-.4-1.98-1.12-2.7s-1.69-1.12-2.7-1.12h-9.29l-6.13-12.25h-12.29c-3.75-6.2-10.47-9.99-17.72-9.98-1.3-7.65-4.34-25.95-4.34-25.95l-6.96-1.45h0c-.27-.47-.77-.76-1.32-.77h-8.75c-.82,0-1.49,.64-1.53,1.46v1.91c0,.85,.69,1.53,1.53,1.53h8.78c.36,0,.71-.13,.98-.36l3.86,.84,3.88,23.15c-5.59,1.05-10.49,4.34-13.58,9.11-3.08,4.77-4.07,10.6-2.74,16.12,1.34,5.52,4.88,10.25,9.81,13.08,4.93,2.83,10.8,3.52,16.24,1.89,5.45-1.62,9.98-5.41,12.55-10.48,2.57-5.07,2.95-10.97,1.04-16.32h8.17l6.81,13.58c-1.7,1.47-2.67,3.6-2.65,5.85,.02,2.24,1.02,4.37,2.74,5.8,1.72,1.44,3.99,2.04,6.2,1.66,2.21-.39,4.14-1.72,5.28-3.66,1.14-1.94,1.36-4.27,.62-6.39-.74-2.12-2.38-3.8-4.47-4.61l.02,.04Zm-42.18,10.53c-4.22,0-8.27-1.68-11.25-4.66-2.98-2.98-4.66-7.03-4.66-11.25s1.68-8.27,4.66-11.25,7.03-4.66,11.25-4.66,8.27,1.68,11.25,4.66c2.98,2.98,4.66,7.03,4.66,11.25s-1.68,8.27-4.66,11.25c-2.98,2.98-7.03,4.66-11.25,4.66Zm43.25-3.07c-.09,1.01-.57,1.94-1.34,2.59-.77,.65-1.77,.97-2.78,.89-1.01-.08-1.94-.56-2.6-1.33-.65-.77-.98-1.76-.9-2.77,.08-1.01,.55-1.94,1.32-2.6s1.76-.99,2.77-.91c1.02,.08,1.96,.56,2.62,1.34,.66,.78,.98,1.78,.9,2.8h.01Z"/>
      <circle class="cls-3" cx="74.6" cy="74" r="73.5"/>
      <g class="cls-7">
        <path class="cls-5" d="M148.09,82.65c-2.12,18-10.77,34.6-24.31,46.64-13.54,12.05-31.03,18.7-49.16,18.71-18.12,0-35.62-6.64-49.17-18.67C11.9,117.29,3.24,100.7,1.11,82.7l1.03-.12c2.1,17.75,10.64,34.1,24.01,45.97,13.36,11.87,30.61,18.42,48.48,18.41,17.87,0,35.12-6.57,48.47-18.45,13.35-11.88,21.88-28.24,23.97-45.99l1.02,.12Z"/>
      </g>
    </g>
  </g>
</svg>