<?xml version="1.0" encoding="UTF-8"?>
<svg id="Layer_2" data-name="Layer 2" xmlns="http://www.w3.org/2000/svg" xmlns:xlink="http://www.w3.org/1999/xlink" viewBox="0 0 150 150">
  <defs>
    <style>
      .cls-1 {
        fill: #fff;
      }

      .cls-2 {
        stroke-width: 3px;
      }

      .cls-2, .cls-3 {
        stroke: #175587;
      }

      .cls-2, .cls-3, .cls-4, .cls-5 {
        fill: none;
      }

      .cls-6 {
        fill: #15efc3;
      }

      .cls-7 {
        mask: url(#mask-1);
      }

      .cls-8 {
        mask: url(#mask);
      }

      .cls-4, .cls-5 {
        stroke: #15efc3;
      }

      .cls-5 {
        stroke-width: 2px;
      }
    </style>
    <mask id="mask" x="1" y="1" width="148" height="82.11" maskUnits="userSpaceOnUse"/>
    <mask id="mask-1" x="1.16" y="83.53" width="146.98" height="65.47" maskUnits="userSpaceOnUse"/>
  </defs>
  <g id="Layer_1-2" data-name="Layer 1">
    <g>
      <circle class="cls-4" cx="75" cy="75" r="73.5"/>
      <g class="cls-8">
        <path class="cls-5" d="M148.64,82.3c1.02-10.32-.13-20.73-3.4-30.57-3.26-9.84-8.56-18.89-15.54-26.55-6.98-7.66-15.5-13.78-24.99-17.94-9.49-4.16-19.76-6.29-30.13-6.23-10.37,.06-20.61,2.29-30.05,6.56-9.45,4.27-17.89,10.47-24.79,18.21-6.9,7.74-12.09,16.85-15.24,26.72C1.35,62.38,.31,72.81,1.45,83.11l1.34-.15c-1.12-10.12-.09-20.36,3-30.06,3.09-9.7,8.19-18.64,14.96-26.24,6.77-7.6,15.06-13.69,24.34-17.88,9.28-4.19,19.33-6.39,29.51-6.44,10.18-.06,20.26,2.03,29.58,6.11,9.32,4.09,17.68,10.09,24.54,17.61,6.86,7.52,12.05,16.41,15.25,26.07,3.2,9.66,4.34,19.89,3.34,30.02l1.34,.13Z"/>
      </g>
      <circle class="cls-1" cx="75" cy="75" r="59.94"/>
      <path class="cls-6" d="M105.47,56.87c2.35-.39,4.66,1.65,5.17,4.56,.45,2.57-.65,4.94-2.52,5.73h-.01c-.25,.11-.52,.18-.79,.23-2.35,.39-4.66-1.65-5.17-4.56-.51-2.91,.98-5.57,3.33-5.96Z"/>
      <path class="cls-6" d="M105.81,56.83c-2.15,.35-3.47,2.98-2.96,5.87,.5,2.89,2.65,4.94,4.79,4.59-1.06,.91-2.3,1.57-3.65,1.95-1.06,.29-2.57,.55-3.66,.45-1.55-4.47-4.54-8.21-8.65-10.49,4.36-1.88,9.38-2.79,14.13-2.36Z"/>
      <path class="cls-6" d="M92.33,41.73c2.28-.38,4.53,1.65,5.04,4.54,.45,2.54-.61,4.89-2.43,5.68h-.01c-.24,.11-.5,.18-.77,.22-.4-.02-.82-.02-1.26-.03-2.09-.66-3.56-2.42-3.77-4.5-.51-2.88,.93-5.52,3.21-5.9Z"/>
      <path class="cls-6" d="M102.28,76.29c.54,3.1,.63,6.25,.27,9.35-1.65,14.99-12.83,27.64-21.41,29.05s-23.43-6.92-30.09-20.54c-1.39-2.82-2.38-5.82-2.93-8.92-1.35-7.69-.24-13.36,2.59-17.55,.47-.72,1.01-1.41,1.59-2.04,2.19-2.32,4.85-4.13,7.79-5.34,.75-.33,1.53-.63,2.33-.91,1.3-.46,2.65-.85,4.05-1.19,.53-2.18,1.38-4.26,2.53-6.18,.59-.99,1.25-1.92,1.99-2.8,7.9-9.36,20.35-7.67,21.23-7.54-2.14,.35-3.46,2.98-2.95,5.86,.22,2.08,1.63,3.86,3.59,4.54-2.52-.08-5.51-.04-6.55,1.32-.76,1.03-1.31,2.21-1.61,3.47,2.42,.36,4.77,1.12,6.95,2.26,4.11,2.29,7.24,6.03,8.79,10.49,.83,2.15,1.44,4.38,1.82,6.66Z"/>
      <path class="cls-6" d="M87.39,42.57c-1.72-.22-3.46-.27-5.19-.12,3.36-.91,6.88-1.15,10.35-.73-2.14,.35-3.46,2.98-2.96,5.86,.22,2.08,1.63,3.86,3.6,4.54-1.94-.21-3.9-.15-5.73,.49-1.67-.85-2.8-2.31-3.03-4.17-.51-2.89,.82-5.51,2.96-5.86Z"/>
      <path class="cls-6" d="M102.3,76.19c.54,3.09,.63,6.24,.27,9.34-1.64,14.97-12.8,27.6-21.35,29.02-.86,.14-1.74,.19-2.62,.14,8.09-3.15,17.35-14.77,18.83-28.3,.35-3.1,.26-6.25-.27-9.34-.38-2.27-.99-4.5-1.81-6.65-1.98-5.1-6.63-8.08-10.38-10.11l-.17-3.47c2.41,.36,4.76,1.12,6.93,2.26,4.09,2.28,7.22,6.02,8.77,10.47,.83,2.15,1.43,4.38,1.81,6.65Z"/>
      <path class="cls-6" d="M64.02,42.38l5.1,9.86c-1.13,1.91-1.96,3.99-2.48,6.17-1.39,.33-2.73,.72-4.02,1.18l-5.65-13.97c-.62-1.34,.47-3.14,2.41-4.04,1.95-.89,4.03-.53,4.63,.79Z"/>
      <path class="cls-6" d="M53.24,47.31l6.87,13.26c-2.92,1.2-5.55,3.01-7.71,5.31l-6.21-15.33c-.61-1.34,.47-3.14,2.41-4.04,1.95-.89,4.03-.53,4.64,.79Z"/>
      <path class="cls-6" d="M42.4,52.25l8.11,15.72c-2.78,4.17-3.56,10.17-2.2,17.85l-12.91-30.33c-.62-1.34,.46-3.14,2.4-4.03,1.93-.89,4-.53,4.6,.79Z"/>
      <path class="cls-6" d="M102.16,42.45l11.7-11.73c.16-.16,.42,.03,.32,.23l-4.34,8.35c-.06,.12,0,.26,.14,.29l9.82,1.85c.17,.03,.22,.24,.09,.35l-15.19,13.13c-.18,.15-.43-.07-.29-.27l7.49-10.65c.09-.13,0-.3-.14-.32l-9.47-.89c-.17-.02-.24-.22-.12-.34Z"/>
      <path class="cls-6" d="M29.1,98.18l7.86-14.59c.11-.2,.42-.09,.37,.13l-1.77,9.24c-.03,.13,.08,.25,.22,.24l9.94-1.04c.17-.02,.28,.17,.19,.31l-10.81,16.93c-.13,.2-.43,.05-.36-.17l4.13-12.35c.05-.15-.08-.29-.23-.26l-9.33,1.85c-.17,.03-.3-.14-.22-.29Z"/>
      <path class="cls-2" d="M54.38,86.94h8.21l9.66-15.93,13.84,26.39,13.04-14.43h7.29"/>
      <path class="cls-2" d="M102.64,83h8.13l9.56-16,8.33,16h5.48"/>
      <circle class="cls-3" cx="74.64" cy="75" r="73.5"/>
      <g class="cls-7">
        <path class="cls-5" d="M148.13,83.65c-2.12,18-10.77,34.6-24.31,46.64-13.54,12.05-31.03,18.7-49.15,18.71-18.12,0-35.62-6.64-49.17-18.67C11.95,118.29,3.29,101.7,1.16,83.7l1.02-.12c2.1,17.75,10.64,34.1,24.01,45.97,13.36,11.87,30.61,18.42,48.48,18.41,17.87,0,35.12-6.57,48.47-18.45,13.35-11.88,21.88-28.24,23.97-45.99l1.03,.12Z"/>
      </g>
    </g>
  </g>
</svg>