<svg width="32" height="32" viewBox="0 0 32 32" fill="none" xmlns="http://www.w3.org/2000/svg">
<path fill-rule="evenodd" clip-rule="evenodd" d="M28.3079 8.61527H14.3386C13.4771 8.61527 12.6771 8.12296 12.1848 7.3845L10.031 3.6922C9.60019 2.95373 8.80019 2.46143 7.87711 2.46143H3.6925C2.33865 2.46143 1.23096 3.56912 1.23096 4.92296V27.0768C1.23096 28.4307 2.33865 29.5383 3.6925 29.5383H28.3079C29.6617 29.5383 30.7694 28.4307 30.7694 27.0768V11.0768C30.7694 9.72296 29.6617 8.61527 28.3079 8.61527ZM28.308 3.69188H13.4772C13.2311 3.69188 13.108 3.93803 13.2311 4.12265L14.2157 5.78419C14.3388 6.03034 14.5234 6.15342 14.7695 6.15342H28.308C28.9849 6.15342 29.6619 6.27649 30.2157 6.52265C30.4619 6.64573 30.7695 6.46111 30.7695 6.15342C30.7695 4.79957 29.6619 3.69188 28.308 3.69188Z" fill="#747474"/>
<path fill-rule="evenodd" clip-rule="evenodd" d="M9.47674 15.3077H22.5229C22.8306 15.3077 23.0767 15 22.9844 14.6923C22.6767 13.6769 22.246 12.7538 21.6614 11.9231C21.4767 11.6769 21.1383 11.6461 20.9537 11.8615C20.3691 12.4154 19.5383 12.7231 18.6767 12.7231C17.7537 12.7231 16.9229 12.3538 16.3075 11.7384C16.1229 11.5538 15.8152 11.5538 15.6306 11.7384C15.0152 12.3538 14.1844 12.7231 13.2614 12.7231C12.3998 12.7231 11.5998 12.4154 10.9844 11.8615C10.7691 11.6769 10.4306 11.7077 10.2767 11.9231C9.69213 12.7231 9.23059 13.6769 8.95367 14.6923C8.9229 15 9.16905 15.3077 9.47674 15.3077V15.3077ZM23.3845 17.2769C23.3845 17 23.1691 16.8461 22.8922 16.8461H9.10754C8.83062 16.8461 8.61523 17 8.61523 17.2769V17.3692C8.61523 21.9846 11.8152 25.8 15.9999 26.3846C20.1845 25.8 23.3845 21.9846 23.3845 17.4V17.2769V17.2769Z" fill="white"/>
</svg>
